<svg width="1440" height="1748" viewBox="0 0 1440 1748" fill="none" xmlns="http://www.w3.org/2000/svg">
<path d="M455.957 9.5191L989.095 15.5568C1169.38 17.5985 1305.67 179.456 1277 357.456L1273.2 381.032C1249.78 526.435 1258.6 675.209 1299.04 816.826L1383.21 1111.58C1473.5 1427.78 1236.07 1742.5 907.234 1742.5H531.88C203.307 1742.5 -34.0825 1428.25 55.7314 1112.19L140.354 814.403C180.153 674.347 189.045 527.316 166.415 383.484L161.202 350.352C132.826 170.011 273.409 7.45177 455.957 9.5191Z" stroke="white" stroke-width="10"/>
<circle cx="720" cy="600.5" r="219" stroke="white" stroke-width="12"/>
<path d="M543 1112.09H475V1046.5H965V1112.09H886.5H885.934L885.383 1112.22C775.798 1137.35 662.014 1137.95 552.17 1113.98L544.066 1112.21L543.539 1112.09H543Z" stroke="white" stroke-width="10"/>
</svg>
