<svg width="1440" height="3809" viewBox="0 0 1440 3809" fill="none" xmlns="http://www.w3.org/2000/svg">
<path d="M455.957 2070.52L989.095 2076.56C1169.38 2078.6 1305.67 2240.46 1277 2418.46L1273.2 2442.03C1249.78 2587.43 1258.6 2736.21 1299.04 2877.83L1383.21 3172.58C1473.5 3488.78 1236.07 3803.5 907.234 3803.5H531.88C203.307 3803.5 -34.0825 3489.25 55.7314 3173.19L140.354 2875.4C180.153 2735.35 189.045 2588.32 166.415 2444.48L161.202 2411.35C132.826 2231.01 273.409 2068.45 455.957 2070.52Z" stroke="white" stroke-width="10"/>
<circle cx="720" cy="2661.5" r="219" stroke="white" stroke-width="12"/>
<path d="M543 3173.09H475V3107.5H965V3173.09H886.5H885.934L885.383 3173.22C775.798 3198.35 662.014 3198.95 552.17 3174.98L544.066 3173.21L543.539 3173.09H543Z" stroke="white" stroke-width="10"/>
<path d="M626.494 2459.07L625.004 565.5H815V2459.08C754.366 2435.44 687.077 2435.46 626.494 2459.07Z" stroke="white" stroke-width="10"/>
<path d="M652.5 3167.5C656.918 3167.5 660.5 3163.92 660.5 3159.5C660.5 3155.08 656.918 3151.5 652.5 3151.5C648.082 3151.5 644.5 3155.08 644.5 3159.5C644.5 3163.92 648.082 3167.5 652.5 3167.5ZM654 3159.5L654 566.5H651L651 3159.5H654Z" fill="white"/>
<path d="M679.5 3167.5C683.918 3167.5 687.5 3163.92 687.5 3159.5C687.5 3155.08 683.918 3151.5 679.5 3151.5C675.082 3151.5 671.5 3155.08 671.5 3159.5C671.5 3163.92 675.082 3167.5 679.5 3167.5ZM681 3159.5L681 566.5H678L678 3159.5H681Z" fill="white"/>
<path d="M706.5 3167.5C710.918 3167.5 714.5 3163.92 714.5 3159.5C714.5 3155.08 710.918 3151.5 706.5 3151.5C702.082 3151.5 698.5 3155.08 698.5 3159.5C698.5 3163.92 702.082 3167.5 706.5 3167.5ZM708 3159.5L708 566.5H705L705 3159.5H708Z" fill="white"/>
<path d="M733.5 3167.5C737.918 3167.5 741.5 3163.92 741.5 3159.5C741.5 3155.08 737.918 3151.5 733.5 3151.5C729.082 3151.5 725.5 3155.08 725.5 3159.5C725.5 3163.92 729.082 3167.5 733.5 3167.5ZM735 3159.5L735 566.5H732L732 3159.5H735Z" fill="white"/>
<path d="M760.5 3167.5C764.918 3167.5 768.5 3163.92 768.5 3159.5C768.5 3155.08 764.918 3151.5 760.5 3151.5C756.082 3151.5 752.5 3155.08 752.5 3159.5C752.5 3163.92 756.082 3167.5 760.5 3167.5ZM762 3159.5L762 566.5H759L759 3159.5H762Z" fill="white"/>
<path d="M787.5 3167.5C791.918 3167.5 795.5 3163.92 795.5 3159.5C795.5 3155.08 791.918 3151.5 787.5 3151.5C783.082 3151.5 779.5 3155.08 779.5 3159.5C779.5 3163.92 783.082 3167.5 787.5 3167.5ZM789 3159.5L789 566.5H786L786 3159.5H789Z" fill="white"/>
<path d="M566.459 47.0102C566.308 46.4715 566.627 45.9131 567.168 45.7695C667.319 19.1668 772.725 19.1783 872.877 45.7813C873.417 45.9248 873.736 46.4807 873.59 47.0167L861.427 91.7449C860.148 96.449 859.5 101.302 859.5 106.177V448.788C859.5 462.991 856.315 477.014 850.18 489.824L815.851 561.5H623.194L589.797 489.392C584.002 476.88 581 463.256 581 449.466V106.384C581 101.36 580.311 96.3583 578.953 91.5204L566.459 47.0102Z" stroke="white" stroke-width="10"/>
<circle cx="8" cy="8" r="8" transform="matrix(-1 0 0 1 814 203.511)" fill="white"/>
<path d="M788.5 211.489C788.5 221.154 796.335 228.989 806 228.989C815.665 228.989 823.5 221.154 823.5 211.489C823.5 201.824 815.665 193.989 806 193.989C796.335 193.989 788.5 201.824 788.5 211.489Z" stroke="white" stroke-width="5"/>
<path d="M892.159 199.3V201.8H889.659H856.5V217.765H889.659H892.159V220.265V240.494C892.159 244.637 895.517 247.994 899.659 247.994H930C934.142 247.994 937.5 244.637 937.5 240.494V182.483C937.5 178.341 934.142 174.983 930 174.983H899.659C895.517 174.983 892.159 178.341 892.159 182.483V199.3Z" stroke="white" stroke-width="5"/>
<path d="M952.4 226.989H968.68V222.709H956.68V214.469H967.12V210.149H956.68V203.269H968.68V198.989H952.4V226.989ZM970.595 226.989H975.635L979.955 220.549L984.235 226.989H989.275L982.475 216.749L989.275 206.509H984.235L979.955 212.949L975.635 206.509H970.595L977.435 216.749L970.595 226.989ZM999.727 226.989H1002.73C1006.77 226.989 1010.05 223.709 1010.05 219.629V213.869C1010.05 209.829 1006.77 206.509 1002.73 206.509H999.727L996.447 208.709V206.509H992.167V235.469H996.447V224.789L999.727 226.989ZM996.447 219.629V213.909L1001.05 210.789H1002.73C1004.41 210.789 1005.77 212.189 1005.77 213.869V219.629C1005.77 221.349 1004.41 222.709 1002.73 222.709H1001.05L996.447 219.629ZM1020.88 226.989H1024.08C1028.16 226.989 1031.44 223.669 1031.44 219.589V219.189H1027.16V219.589C1027.16 221.309 1025.76 222.669 1024.08 222.669H1020.88C1019.2 222.669 1017.84 221.309 1017.84 219.589V217.589H1031.44V213.549C1031.28 209.629 1028.04 206.509 1024.08 206.509H1020.88C1016.84 206.509 1013.56 209.789 1013.56 213.869V219.589C1013.56 223.629 1016.84 226.989 1020.88 226.989ZM1017.84 214.549V213.869C1017.84 212.189 1019.16 210.789 1020.88 210.789H1024.08C1025.8 210.789 1027.16 212.149 1027.16 213.869V214.549H1017.84ZM1035.6 226.989H1039.88V214.309L1045.08 210.789H1045.48C1047 210.789 1048.08 212.189 1048.08 213.869V215.389H1052.36V213.869C1052.36 209.789 1049.24 206.509 1045.48 206.509H1044.2L1039.88 209.469V206.509H1035.6V226.989ZM1054.53 226.989H1071.89V222.709H1065.33V206.509H1054.53V210.789H1061.05V222.709H1054.53V226.989ZM1060.57 203.109H1065.33V198.589H1060.57V203.109ZM1080.56 226.989H1083.76C1087.84 226.989 1091.12 223.669 1091.12 219.589V219.189H1086.84V219.589C1086.84 221.309 1085.44 222.669 1083.76 222.669H1080.56C1078.88 222.669 1077.52 221.309 1077.52 219.589V217.589H1091.12V213.549C1090.96 209.629 1087.72 206.509 1083.76 206.509H1080.56C1076.52 206.509 1073.24 209.789 1073.24 213.869V219.589C1073.24 223.629 1076.52 226.989 1080.56 226.989ZM1077.52 214.549V213.869C1077.52 212.189 1078.84 210.789 1080.56 210.789H1083.76C1085.48 210.789 1086.84 212.149 1086.84 213.869V214.549H1077.52ZM1108.89 213.869V226.989H1113.17V213.869C1113.17 209.789 1109.89 206.509 1105.85 206.509H1102.85L1099.57 208.869V206.509H1095.29V226.989H1099.57V213.829L1104.17 210.789H1105.85C1107.53 210.789 1108.89 212.189 1108.89 213.869ZM1124.55 226.989H1127.75C1131.83 226.989 1135.11 223.669 1135.11 219.589V219.189H1130.83V219.589C1130.83 221.309 1129.43 222.669 1127.75 222.669H1124.55C1122.87 222.669 1121.51 221.309 1121.51 219.589V213.869C1121.51 212.189 1122.83 210.789 1124.55 210.789H1127.75C1129.47 210.789 1130.83 212.149 1130.83 213.869V214.269H1135.11V213.869C1135.11 209.789 1131.83 206.509 1127.75 206.509H1124.55C1120.51 206.509 1117.23 209.789 1117.23 213.869V219.589C1117.23 223.629 1120.51 226.989 1124.55 226.989ZM1145.6 226.989H1148.8C1152.88 226.989 1156.16 223.669 1156.16 219.589V219.189H1151.88V219.589C1151.88 221.309 1150.48 222.669 1148.8 222.669H1145.6C1143.92 222.669 1142.56 221.309 1142.56 219.589V217.589H1156.16V213.549C1156 209.629 1152.76 206.509 1148.8 206.509H1145.6C1141.56 206.509 1138.28 209.789 1138.28 213.869V219.589C1138.28 223.629 1141.56 226.989 1145.6 226.989ZM1142.56 214.549V213.869C1142.56 212.189 1143.88 210.789 1145.6 210.789H1148.8C1150.52 210.789 1151.88 212.149 1151.88 213.869V214.549H1142.56Z" fill="white"/>
<circle cx="8" cy="8" r="8" transform="matrix(-1 0 0 1 814 320.522)" fill="white"/>
<path d="M788.5 328.5C788.5 338.165 796.335 346 806 346C815.665 346 823.5 338.165 823.5 328.5C823.5 318.835 815.665 311 806 311C796.335 311 788.5 318.835 788.5 328.5Z" stroke="white" stroke-width="5"/>
<path d="M892.159 316.311V318.811H889.659H856.5V334.776H889.659H892.159V337.276V357.506C892.159 361.648 895.517 365.006 899.659 365.006H930C934.142 365.006 937.5 361.648 937.5 357.506V299.495C937.5 295.352 934.142 291.995 930 291.995H899.659C895.517 291.995 892.159 295.352 892.159 299.495V316.311Z" stroke="white" stroke-width="5"/>
<path d="M959.4 344H962.6C966.68 344 969.96 340.68 969.96 336.6V334.4H965.68V336.6C965.68 338.32 964.28 339.68 962.6 339.68H959.4C957.72 339.68 956.36 338.32 956.36 336.6V323.36C956.36 321.64 957.68 320.28 959.4 320.28H962.6C964.32 320.28 965.68 321.6 965.68 323.36V325.56H969.96V323.36C969.96 319.28 966.68 316 962.6 316H959.4C955.36 316 952.08 319.28 952.08 323.36V336.6C952.08 340.64 955.36 344 959.4 344ZM980.564 344H983.764C987.844 344 991.124 340.76 991.124 336.68V330.88C991.124 326.8 987.844 323.52 983.764 323.52H980.564C976.524 323.52 973.244 326.8 973.244 330.88V336.68C973.244 340.76 976.524 344 980.564 344ZM977.524 336.68V330.88C977.524 329.16 978.844 327.8 980.564 327.8H983.764C985.484 327.8 986.844 329.16 986.844 330.88V336.68C986.844 338.4 985.484 339.72 983.764 339.72H980.564C978.884 339.68 977.524 338.4 977.524 336.68ZM1008.93 330.88V344H1013.21V330.88C1013.21 326.8 1009.93 323.52 1005.89 323.52H1002.89L999.611 325.88V323.52H995.331V344H999.611V330.84L1004.21 327.8H1005.89C1007.57 327.8 1008.93 329.2 1008.93 330.88ZM1029 344H1033.36V339.72H1029C1027.28 339.72 1025.96 338.4 1025.96 336.64V327.8H1033.36V323.52H1025.96V318.32H1021.68V323.52H1015.48V327.8H1021.68V336.64C1021.68 340.72 1024.96 344 1029 344ZM1043.46 344H1046.46L1049.74 341.8V344H1054.02V323.52H1049.74V325.72L1046.46 323.52H1043.46C1039.42 323.52 1036.14 326.8 1036.14 330.88V336.64C1036.14 340.68 1039.42 344 1043.46 344ZM1040.42 336.64V330.88C1040.42 329.2 1041.78 327.8 1043.46 327.8H1045.14L1049.74 330.92V336.64L1045.14 339.72H1043.46C1041.78 339.72 1040.42 338.36 1040.42 336.64ZM1065.53 344H1068.73C1072.81 344 1076.09 340.68 1076.09 336.6V336.2H1071.81V336.6C1071.81 338.32 1070.41 339.68 1068.73 339.68H1065.53C1063.85 339.68 1062.49 338.32 1062.49 336.6V330.88C1062.49 329.2 1063.81 327.8 1065.53 327.8H1068.73C1070.45 327.8 1071.81 329.16 1071.81 330.88V331.28H1076.09V330.88C1076.09 326.8 1072.81 323.52 1068.73 323.52H1065.53C1061.49 323.52 1058.21 326.8 1058.21 330.88V336.6C1058.21 340.64 1061.49 344 1065.53 344ZM1091.11 344H1095.47V339.72H1091.11C1089.39 339.72 1088.07 338.4 1088.07 336.64V327.8H1095.47V323.52H1088.07V318.32H1083.79V323.52H1077.59V327.8H1083.79V336.64C1083.79 340.72 1087.07 344 1091.11 344Z" fill="white"/>
<circle cx="8" cy="8" r="8" transform="matrix(-1 0 0 1 814 437.533)" fill="white"/>
<path d="M788.5 445.511C788.5 455.176 796.335 463.011 806 463.011C815.665 463.011 823.5 455.176 823.5 445.511C823.5 435.846 815.665 428.011 806 428.011C796.335 428.011 788.5 435.846 788.5 445.511Z" stroke="white" stroke-width="5"/>
<path d="M892.159 433.322V435.822H889.659H856.5V451.787H889.659H892.159V454.287V474.517C892.159 478.659 895.517 482.017 899.659 482.017H930C934.142 482.017 937.5 478.659 937.5 474.517V416.505C937.5 412.363 934.142 409.005 930 409.005H899.659C895.517 409.005 892.159 412.363 892.159 416.505V433.322Z" stroke="white" stroke-width="5"/>
<path d="M952.4 461.011H956.68V441.531L961.36 450.611H963.68L968.36 441.531V461.011H972.64V433.011H968.16L962.52 443.931L956.88 433.011H952.4V461.011ZM983.963 461.011H987.163C991.243 461.011 994.523 457.771 994.523 453.691V447.891C994.523 443.811 991.243 440.531 987.163 440.531H983.963C979.923 440.531 976.643 443.811 976.643 447.891V453.691C976.643 457.771 979.923 461.011 983.963 461.011ZM980.923 453.691V447.891C980.923 446.171 982.243 444.811 983.963 444.811H987.163C988.883 444.811 990.243 446.171 990.243 447.891V453.691C990.243 455.411 988.883 456.731 987.163 456.731H983.963C982.283 456.691 980.923 455.411 980.923 453.691ZM998.729 461.011H1003.01V448.331L1008.21 444.811H1008.61C1010.13 444.811 1011.21 446.211 1011.21 447.891V449.411H1015.49V447.891C1015.49 443.811 1012.37 440.531 1008.61 440.531H1007.33L1003.01 443.491V440.531H998.729V461.011ZM1025.17 461.011H1028.37C1032.45 461.011 1035.73 457.691 1035.73 453.611V453.211H1031.45V453.611C1031.45 455.331 1030.05 456.691 1028.37 456.691H1025.17C1023.49 456.691 1022.13 455.331 1022.13 453.611V451.611H1035.73V447.571C1035.57 443.651 1032.33 440.531 1028.37 440.531H1025.17C1021.13 440.531 1017.85 443.811 1017.85 447.891V453.611C1017.85 457.651 1021.13 461.011 1025.17 461.011ZM1022.13 448.571V447.891C1022.13 446.211 1023.45 444.811 1025.17 444.811H1028.37C1030.09 444.811 1031.45 446.171 1031.45 447.891V448.571H1022.13Z" fill="white"/>
<circle cx="634" cy="207.511" r="8" fill="white"/>
<path d="M651.5 207.489C651.5 217.154 643.665 224.989 634 224.989C624.335 224.989 616.5 217.154 616.5 207.489C616.5 197.824 624.335 189.989 634 189.989C643.665 189.989 651.5 197.824 651.5 207.489Z" stroke="white" stroke-width="5"/>
<path d="M547.841 195.3V197.8H550.341H583.5V213.765H550.341H547.841V216.265V236.494C547.841 240.637 544.483 243.994 540.341 243.994H510C505.858 243.994 502.5 240.637 502.5 236.494V178.483C502.5 174.341 505.858 170.983 510 170.983H540.341C544.483 170.983 547.841 174.341 547.841 178.483V195.3Z" stroke="white" stroke-width="5"/>
<path d="M408.642 222.989H412.282L415.882 211.429L419.442 222.989H423.082L426.602 204.109V194.989H422.322V202.909L420.522 213.309L417.682 202.029H414.042L411.242 213.229L409.442 202.909V194.989H405.122V204.109L408.642 222.989ZM437.244 222.989H440.444C444.524 222.989 447.804 219.749 447.804 215.669V209.869C447.804 205.789 444.524 202.509 440.444 202.509H437.244C433.204 202.509 429.924 205.789 429.924 209.869V215.669C429.924 219.749 433.204 222.989 437.244 222.989ZM434.204 215.669V209.869C434.204 208.149 435.524 206.789 437.244 206.789H440.444C442.164 206.789 443.524 208.149 443.524 209.869V215.669C443.524 217.389 442.164 218.709 440.444 218.709H437.244C435.564 218.669 434.204 217.389 434.204 215.669ZM452.01 222.989H456.29V210.309L461.49 206.789H461.89C463.41 206.789 464.49 208.189 464.49 209.869V211.389H468.77V209.869C468.77 205.789 465.65 202.509 461.89 202.509H460.61L456.29 205.469V202.509H452.01V222.989ZM471.815 222.989H476.095V214.949H479.575L484.655 222.989H489.695L483.295 212.749L489.695 202.509H484.655L479.535 210.629H476.095V194.589H471.815V222.989Z" fill="white"/>
<circle cx="634" cy="324.522" r="8" fill="white"/>
<path d="M651.5 324.5C651.5 334.165 643.665 342 634 342C624.335 342 616.5 334.165 616.5 324.5C616.5 314.835 624.335 307 634 307C643.665 307 651.5 314.835 651.5 324.5Z" stroke="white" stroke-width="5"/>
<path d="M547.841 312.311V314.811H550.341H583.5V330.776H550.341H547.841V333.276V353.506C547.841 357.648 544.483 361.006 540.341 361.006H510C505.858 361.006 502.5 357.648 502.5 353.506V295.495C502.5 291.352 505.858 287.995 510 287.995H540.341C544.483 287.995 547.841 291.352 547.841 295.495V312.311Z" stroke="white" stroke-width="5"/>
<path d="M384.524 340H388.804V333.72H398.524V340H402.804V330.88L395.764 312H391.564L384.524 330.88V340ZM389.604 329.52L393.684 318.76L397.724 329.52H389.604ZM414.18 340H417.18C421.22 340 424.5 336.68 424.5 332.64V326.88C424.5 322.8 421.22 319.52 417.18 319.52H414.18L410.9 321.72V311.6H406.62V340H410.9V337.8L414.18 340ZM410.9 332.64V326.92L415.5 323.8H417.18C418.86 323.8 420.22 325.2 420.22 326.88V332.64C420.22 334.36 418.86 335.72 417.18 335.72H415.5L410.9 332.64ZM435.33 340H438.53C442.61 340 445.89 336.76 445.89 332.68V326.88C445.89 322.8 442.61 319.52 438.53 319.52H435.33C431.29 319.52 428.01 322.8 428.01 326.88V332.68C428.01 336.76 431.29 340 435.33 340ZM432.29 332.68V326.88C432.29 325.16 433.61 323.8 435.33 323.8H438.53C440.25 323.8 441.61 325.16 441.61 326.88V332.68C441.61 334.4 440.25 335.72 438.53 335.72H435.33C433.65 335.68 432.29 334.4 432.29 332.68ZM454.216 332.64V319.52H449.936V332.64C449.936 336.72 453.216 340 457.256 340H460.256L463.536 337.64V340H467.816V319.52H463.536V332.68L458.936 335.72H457.256C455.576 335.72 454.216 334.32 454.216 332.64ZM484.193 340H488.553V335.72H484.193C482.473 335.72 481.153 334.4 481.153 332.64V323.8H488.553V319.52H481.153V314.32H476.873V319.52H470.673V323.8H476.873V332.64C476.873 336.72 480.153 340 484.193 340Z" fill="white"/>
<circle cx="634" cy="441.533" r="8" fill="white"/>
<path d="M651.5 441.511C651.5 451.176 643.665 459.011 634 459.011C624.335 459.011 616.5 451.176 616.5 441.511C616.5 431.846 624.335 424.011 634 424.011C643.665 424.011 651.5 431.846 651.5 441.511Z" stroke="white" stroke-width="5"/>
<path d="M547.841 429.322V431.822H550.341H583.5V447.787H550.341H547.841V450.287V470.517C547.841 474.659 544.483 478.017 540.341 478.017H510C505.858 478.017 502.5 474.659 502.5 470.517V412.505C502.5 408.363 505.858 405.005 510 405.005H540.341C544.483 405.005 547.841 408.363 547.841 412.505V429.322Z" stroke="white" stroke-width="5"/>
<path d="M409.197 457.011H419.677C423.757 457.011 426.997 453.731 426.997 449.651V448.131C426.997 445.891 425.997 443.891 424.437 442.531C425.517 441.251 426.197 439.571 426.197 437.731V436.371C426.197 432.291 422.957 429.011 418.877 429.011H409.197V457.011ZM413.477 452.731V445.091H419.677C421.397 445.091 422.717 446.411 422.717 448.131V449.651C422.717 451.411 421.397 452.731 419.677 452.731H413.477ZM413.477 440.811V433.291H418.877C420.597 433.291 421.917 434.611 421.917 436.371V437.731C421.917 439.451 420.597 440.811 418.877 440.811H413.477ZM429.04 457.011H446.96V452.731H439.96V428.611H429.04V432.891H435.64V452.731H429.04V457.011ZM455.603 457.011H458.803C462.883 457.011 466.163 453.771 466.163 449.691V443.891C466.163 439.811 462.883 436.531 458.803 436.531H455.603C451.563 436.531 448.283 439.811 448.283 443.891V449.691C448.283 453.771 451.563 457.011 455.603 457.011ZM452.563 449.691V443.891C452.563 442.171 453.883 440.811 455.603 440.811H458.803C460.523 440.811 461.883 442.171 461.883 443.891V449.691C461.883 451.411 460.523 452.731 458.803 452.731H455.603C453.923 452.691 452.563 451.411 452.563 449.691ZM477.05 465.491H480.25C484.29 465.491 487.57 462.131 487.57 458.091V436.531H483.29V438.731L480.01 436.531H477.01C472.97 436.531 469.69 439.811 469.69 443.891V449.651C469.69 453.691 472.97 457.011 477.01 457.011H480.01L483.29 454.811V458.091C483.29 459.771 481.93 461.171 480.25 461.171H477.05C475.37 461.171 473.97 459.771 473.97 458.091H469.69C469.69 462.131 473.01 465.491 477.05 465.491ZM473.97 449.651V443.891C473.97 442.211 475.33 440.811 477.01 440.811H478.69L483.29 443.931V449.651L478.69 452.731H477.01C475.33 452.731 473.97 451.371 473.97 449.651Z" fill="white"/>
<path d="M653 570.5L634 442" stroke="white" stroke-width="3"/>
<path d="M680 570.5L634 325" stroke="white" stroke-width="3"/>
<path d="M707 570.5L634 208" stroke="white" stroke-width="3"/>
<path d="M733 570.5L806 212" stroke="white" stroke-width="3"/>
<path d="M760 570.5L806 329" stroke="white" stroke-width="3"/>
<path d="M787 570.5L806 446" stroke="white" stroke-width="3"/>
<g filter="url(#filter0_d_3_91)">
<path d="M658.791 78.6V78.888L659.607 81.336L649.047 110.712V111H656.487V110.712C651.687 108.744 651.495 107.544 653.991 100.488L654.327 99.576H665.895L669.015 109.08L664.983 110.712V111H673.047V110.712L662.535 78.6H658.791ZM660.183 82.92H660.375L665.607 98.712H654.615L660.183 82.92ZM699.13 93.528C699.13 87.24 695.722 85.512 691.978 85.512C691.114 85.512 688.666 87.048 686.026 90.168C685.258 85.656 684.394 85.416 683.674 85.416C682.09 85.416 679.642 88.92 677.482 90.792L677.626 91.032L683.098 88.008V109.512L678.922 110.712V111H690.394V110.712L686.218 109.512V91.272C687.514 89.544 689.242 87.912 691.066 87.912C693.658 87.912 696.106 89.64 696.106 93.576V109.512L691.93 110.712V111H703.354V110.712L699.178 109.512L699.13 93.528ZM725.978 108.792V74.616H725.69L718.202 76.296V76.584L722.906 76.632V86.424C721.802 85.992 720.266 85.656 717.866 85.656C715.994 85.656 708.17 89.448 708.17 99.912C708.17 107.544 712.346 111.24 717.386 111.336C718.01 111.336 720.842 109.176 723.146 106.872C723.914 111.144 724.682 111.384 725.45 111.384C727.034 111.384 729.482 107.88 731.594 106.008L731.45 105.768L725.978 108.792ZM717.818 108.84C713.69 108.84 710.906 104.136 710.906 97.56C710.906 89.112 714.938 87.432 717.914 87.432C720.074 87.432 721.706 88.2 722.906 89.112V105.768C721.85 107.304 720.218 108.84 717.818 108.84ZM755.124 87.576C754.596 87.96 754.116 88.296 753.444 88.296C751.764 88.296 749.172 85.368 747.78 85.368C747.252 85.368 744.756 88.152 743.172 90.696C742.356 85.704 741.492 85.416 740.724 85.416C739.14 85.416 736.692 88.92 734.532 90.792L734.676 91.032L740.148 88.008V109.512L735.972 110.712V111H747.444V110.712L743.268 109.512V92.04C744.276 90.168 745.716 88.2 746.724 88.2C748.404 88.2 750.276 90.888 751.908 90.888C753.156 90.888 754.404 88.776 755.316 87.768L755.124 87.576ZM775.8 107.304C774.36 108.216 773.112 109.08 771.048 109.08C765 109.08 761.064 104.232 761.064 96.504V96.12H771.96C772.68 96.12 775.704 94.2 775.704 93.336C775.656 88.584 773.88 85.32 768.648 85.32C766.584 85.32 758.472 88.728 758.472 99.288C758.472 107.448 763.32 111.48 769.224 111.48C770.616 111.48 773.16 109.896 775.992 107.64L775.8 107.304ZM767.592 87.384C770.52 87.384 773.064 89.736 772.68 95.256H761.112C761.496 88.68 765.048 87.384 767.592 87.384ZM786.626 80.856C787.874 80.856 788.882 79.848 788.882 78.504C788.882 77.256 787.874 76.248 786.626 76.248C785.282 76.248 784.274 77.256 784.274 78.504C784.274 79.848 785.282 80.856 786.626 80.856ZM785.234 109.512L781.058 110.712V111H792.53V110.712L788.354 109.512V85.896H781.106V86.184L785.282 87.48L785.234 109.512ZM723.722 139.68C721.082 148.656 721.322 149.136 717.578 149.136H709.082V119.424L713.162 117.888V117.6H701.69V117.888L705.77 119.424L705.818 148.08L701.93 149.712V150H724.01V139.68H723.722ZM734.943 119.856C736.191 119.856 737.199 118.848 737.199 117.504C737.199 116.256 736.191 115.248 734.943 115.248C733.599 115.248 732.591 116.256 732.591 117.504C732.591 118.848 733.599 119.856 734.943 119.856ZM733.551 148.512L729.375 149.712V150H740.847V149.712L736.671 148.512V124.896H729.423V125.184L733.599 126.48L733.551 148.512Z" fill="white"/>
</g>
<defs>
<filter id="filter0_d_3_91" x="646.047" y="71.616" width="151.484" height="83.384" filterUnits="userSpaceOnUse" color-interpolation-filters="sRGB">
<feFlood flood-opacity="0" result="BackgroundImageFix"/>
<feColorMatrix in="SourceAlpha" type="matrix" values="0 0 0 0 0 0 0 0 0 0 0 0 0 0 0 0 0 0 127 0" result="hardAlpha"/>
<feOffset dx="1" dy="1"/>
<feGaussianBlur stdDeviation="2"/>
<feComposite in2="hardAlpha" operator="out"/>
<feColorMatrix type="matrix" values="0 0 0 0 0.454167 0 0 0 0 0.454167 0 0 0 0 0.454167 0 0 0 0.89 0"/>
<feBlend mode="normal" in2="BackgroundImageFix" result="effect1_dropShadow_3_91"/>
<feBlend mode="normal" in="SourceGraphic" in2="effect1_dropShadow_3_91" result="shape"/>
</filter>
</defs>
</svg>
