<svg width="320" height="567" viewBox="0 0 320 567" fill="none" xmlns="http://www.w3.org/2000/svg">
<path d="M290.18 489.824L255.851 561.5H63.1944L29.797 489.392C24.0019 476.88 21 463.256 21 449.466V106.384C21 101.36 20.3114 96.3583 18.9534 91.5204L6.45927 47.0102C6.30805 46.4715 6.6268 45.9131 7.1676 45.7695C107.319 19.1668 212.725 19.1783 312.877 45.7813C313.417 45.9248 313.736 46.4807 313.59 47.0168L301.427 91.7449C300.148 96.449 299.5 101.302 299.5 106.177V448.788C299.5 462.991 296.315 477.014 290.18 489.824Z" stroke="white" stroke-width="10"/>
<path d="M92 562L74 442" stroke="white" stroke-width="3"/>
<path d="M119 562L74 325" stroke="white" stroke-width="3"/>
<path d="M146 562L74 208" stroke="white" stroke-width="3"/>
<path d="M174 562L246 212" stroke="white" stroke-width="3"/>
<path d="M201 562L246 329" stroke="white" stroke-width="3"/>
<path d="M228 562L246 446" stroke="white" stroke-width="3"/>
</svg>
